<svg width="20" height="20" viewBox="0 0 20 20" fill="none" xmlns="http://www.w3.org/2000/svg">
<path d="M10 1.66667C5.4 1.66667 1.66666 5.40001 1.66666 10C1.66666 14.6 5.4 18.3333 10 18.3333C14.6 18.3333 18.3333 14.6 18.3333 10C18.3333 5.40001 14.6 1.66667 10 1.66667ZM10 16.6667C6.325 16.6667 3.33333 13.675 3.33333 10C3.33333 6.32501 6.325 3.33334 10 3.33334C13.675 3.33334 16.6667 6.32501 16.6667 10C16.6667 13.675 13.675 16.6667 10 16.6667ZM9.16666 13.3333H10.8333V15H9.16666V13.3333ZM10.5083 5.03334C8.79166 4.78334 7.275 5.84167 6.81666 7.35834C6.66666 7.84167 7.03333 8.33334 7.54166 8.33334H7.70833C8.05 8.33334 8.325 8.09167 8.44166 7.77501C8.70833 7.03334 9.5 6.52501 10.3583 6.70834C11.15 6.87501 11.7333 7.65 11.6667 8.45834C11.5833 9.57501 10.3167 9.81667 9.625 10.8583C9.625 10.8667 9.61666 10.8667 9.61666 10.875C9.60833 10.8917 9.6 10.9 9.59166 10.9167C9.51666 11.0417 9.44166 11.1833 9.38333 11.3333C9.375 11.3583 9.35833 11.375 9.35 11.4C9.34166 11.4167 9.34166 11.4333 9.33333 11.4583C9.23333 11.7417 9.16666 12.0833 9.16666 12.5H10.8333C10.8333 12.15 10.925 11.8583 11.0667 11.6083C11.0833 11.5833 11.0917 11.5583 11.1083 11.5333C11.175 11.4167 11.2583 11.3083 11.3417 11.2083C11.35 11.2 11.3583 11.1833 11.3667 11.175C11.45 11.075 11.5417 10.9833 11.6417 10.8917C12.4417 10.1333 13.525 9.51667 13.3 7.92501C13.1 6.47501 11.9583 5.25001 10.5083 5.03334Z" fill="#878787"/>
</svg>
